<svg xmlns="http://www.w3.org/2000/svg" data-glyph="piece-pawn-brand" aria-hidden="true" width="32" height="32" viewBox="0 0 32 32"><path d="M16 25.967c6.433-.034 6.7-1.167 6.7-1.3 0-1.667-.533-3.3-1.9-4.267-2.567-1.933-2.9-3.733-3-4.866V14.7h2.067c.233-.466.366-.866.366-1.366L17.9 11.8a3.2 3.2 0 0 0 1.333-2.6c0-1.8-1.433-3.233-3.233-3.233A3.215 3.215 0 0 0 12.767 9.2c0 1.067.533 2.034 1.333 2.6l-2.333 1.534c0 .5.133.9.366 1.366H14.2v.834c-.1 1.133-.433 2.933-3 4.866-1.367.967-1.9 2.6-1.9 4.267 0 .133.267 1.266 6.7 1.3"/></svg>

